<?xml version="1.0" encoding="utf-8"?>
<!-- Generator: Adobe Illustrator 27.7.0, SVG Export Plug-In . SVG Version: 6.00 Build 0)  -->
<svg version="1.1" id="Layer_1" xmlns="http://www.w3.org/2000/svg" xmlns:xlink="http://www.w3.org/1999/xlink" x="0px" y="0px"
	 viewBox="0 0 1080 154.3" style="enable-background:new 0 0 1080 154.3;" xml:space="preserve">
<style type="text/css">
	.st0{fill:#103928;}
</style>
<g>
	<g>
		<g>
			<g>
				<path class="st0" d="M246.7,91.3h-0.2l-12.7-51.2h-15.3l-12.9,50.5h-0.2l-11.7-50.5h-16.3l19.6,74.3h16.5l12.4-50.5h0.2
					l12.6,50.5h16.2l20-74.3h-16L246.7,91.3z M324.7,65.2c-1.5-1.9-3.4-3.4-6-4.5c-2.5-1.1-5.8-1.6-9.7-1.6c-2.8,0-5.6,0.7-8.5,2.1
					c-2.9,1.4-5.3,3.7-7.2,6.8H293v-28h-14.8v74.3H293V86.2c0-5.5,0.9-9.4,2.7-11.8c1.8-2.4,4.7-3.6,8.7-3.6c3.5,0,6,1.1,7.4,3.3
					c1.4,2.2,2.1,5.5,2.1,9.9v30.4h14.8V81.3c0-3.3-0.3-6.4-0.9-9.1C327.1,69.5,326.1,67.1,324.7,65.2z M385.5,102.4v-28
					c0-3.3-0.7-5.9-2.2-7.9c-1.5-2-3.3-3.5-5.6-4.6c-2.3-1.1-4.8-1.9-7.6-2.2c-2.8-0.4-5.5-0.6-8.2-0.6c-3,0-5.9,0.3-8.9,0.9
					c-3,0.6-5.6,1.6-8,3c-2.4,1.4-4.3,3.2-5.8,5.5c-1.5,2.3-2.4,5.2-2.6,8.6h14.8c0.3-2.9,1.3-5,2.9-6.2c1.7-1.2,3.9-1.9,6.9-1.9
					c1.3,0,2.5,0.1,3.7,0.3c1.1,0.2,2.1,0.5,3,1c0.9,0.5,1.6,1.2,2.1,2.2c0.5,0.9,0.8,2.2,0.8,3.8c0.1,1.5-0.4,2.7-1.3,3.5
					c-1,0.8-2.3,1.4-4,1.8c-1.7,0.4-3.6,0.7-5.7,0.9c-2.1,0.2-4.3,0.5-6.5,0.8c-2.2,0.3-4.4,0.8-6.6,1.4c-2.2,0.6-4.1,1.5-5.8,2.6
					c-1.7,1.2-3.1,2.8-4.2,4.7c-1.1,2-1.6,4.5-1.6,7.5c0,2.8,0.5,5.2,1.4,7.2c0.9,2,2.2,3.7,3.9,5c1.7,1.3,3.6,2.3,5.8,2.9
					c2.2,0.6,4.6,0.9,7.2,0.9c3.3,0,6.6-0.5,9.8-1.5c3.2-1,6-2.7,8.3-5.1c0.1,0.9,0.2,1.8,0.4,2.7c0.2,0.9,0.4,1.7,0.7,2.5h15
					c-0.7-1.1-1.2-2.8-1.5-5C385.6,107.2,385.5,104.8,385.5,102.4z M370.7,93.6c0,0.8-0.1,1.9-0.3,3.3c-0.2,1.4-0.6,2.8-1.4,4.1
					c-0.8,1.4-1.9,2.5-3.5,3.5c-1.6,1-3.8,1.5-6.8,1.5c-1.2,0-2.3-0.1-3.4-0.3c-1.1-0.2-2.1-0.6-2.9-1.1c-0.8-0.5-1.5-1.2-2-2.1
					c-0.5-0.9-0.7-2-0.7-3.3c0-1.4,0.2-2.5,0.7-3.4c0.5-0.9,1.1-1.6,1.9-2.2c0.8-0.6,1.7-1.1,2.8-1.4c1.1-0.3,2.2-0.6,3.3-0.8
					c1.2-0.2,2.4-0.4,3.5-0.5c1.2-0.1,2.3-0.3,3.4-0.5c1.1-0.2,2.1-0.5,3-0.8c0.9-0.3,1.7-0.7,2.3-1.3V93.6z M413,44.5h-14.8v16.1
					h-8.9v9.9h8.9v31.7c0,2.7,0.5,4.9,1.4,6.6c0.9,1.7,2.1,3,3.7,3.9c1.6,0.9,3.4,1.5,5.4,1.8c2,0.3,4.2,0.5,6.5,0.5
					c1.5,0,2.9,0,4.5-0.1c1.5-0.1,2.9-0.2,4.2-0.4v-11.4c-0.7,0.1-1.4,0.2-2.2,0.3c-0.8,0.1-1.6,0.1-2.4,0.1c-2.5,0-4.2-0.4-5-1.3
					c-0.8-0.8-1.2-2.5-1.2-5V70.5h10.8v-9.9H413V44.5z M474.1,90.8c-1-1.7-2.3-3.1-3.8-4.3c-1.6-1.1-3.4-2.1-5.5-2.8
					c-2-0.7-4.1-1.3-6.3-1.8c-2.1-0.5-4.1-0.9-6.1-1.4c-2-0.4-3.8-0.9-5.4-1.4c-1.6-0.5-2.8-1.2-3.8-2c-1-0.8-1.5-1.9-1.5-3.2
					c0-1.1,0.3-2,0.8-2.7c0.6-0.7,1.2-1.2,2-1.5c0.8-0.3,1.7-0.6,2.6-0.7c1-0.1,1.9-0.2,2.7-0.2c2.6,0,4.9,0.5,6.9,1.5
					c1.9,1,3,2.9,3.2,5.8h14c-0.3-3.3-1.1-6.1-2.5-8.3c-1.4-2.2-3.2-3.9-5.4-5.2c-2.1-1.3-4.6-2.3-7.3-2.8c-2.7-0.6-5.6-0.8-8.5-0.8
					c-2.9,0-5.8,0.3-8.5,0.8c-2.8,0.5-5.3,1.4-7.5,2.7c-2.2,1.3-4,3-5.4,5.3c-1.4,2.2-2,5.1-2,8.5c0,2.4,0.5,4.4,1.5,6
					c1,1.6,2.3,3,3.8,4.1c1.6,1.1,3.4,1.9,5.5,2.6c2,0.7,4.1,1.2,6.3,1.7c5.3,1.1,9.4,2.2,12.3,3.3c2.9,1.1,4.4,2.8,4.4,5
					c0,1.3-0.3,2.4-0.9,3.3c-0.6,0.9-1.4,1.6-2.3,2.1c-0.9,0.5-2,0.9-3.1,1.1c-1.1,0.2-2.2,0.4-3.3,0.4c-1.5,0-2.9-0.2-4.2-0.5
					c-1.4-0.3-2.5-0.9-3.6-1.6c-1-0.7-1.9-1.7-2.5-2.8c-0.7-1.1-1-2.5-1-4.1h-14c0.1,3.6,1,6.6,2.4,9c1.5,2.4,3.4,4.3,5.7,5.8
					c2.3,1.5,5,2.5,8,3.1c3,0.6,6,0.9,9.1,0.9c3.1,0,6-0.3,9-0.9c2.9-0.6,5.6-1.6,7.8-3.1c2.3-1.5,4.1-3.4,5.6-5.8
					c1.4-2.4,2.1-5.4,2.1-8.9C475.5,94.6,475,92.5,474.1,90.8z M503.4,40.1l-28.1,74.3h16.4l5.8-16.5h27.8l5.6,16.5h17l-27.8-74.3
					H503.4z M501.8,85.7l9.7-27.2h0.2l9.4,27.2H501.8z M598.9,67.9c-2-2.6-4.5-4.8-7.6-6.3c-3.1-1.6-6.7-2.4-10.9-2.4
					c-3.3,0-6.4,0.7-9.1,2c-2.8,1.3-5.1,3.4-6.9,6.3h-0.2v-6.9h-14v72.6h14.8v-25.5h0.2c1.8,2.6,4.1,4.6,6.9,6c2.8,1.4,5.9,2,9.2,2
					c4,0,7.4-0.8,10.3-2.3c2.9-1.5,5.4-3.6,7.4-6.1c2-2.6,3.4-5.5,4.4-8.8c1-3.3,1.5-6.8,1.5-10.4c0-3.8-0.5-7.5-1.5-11
					C602.4,73.6,600.9,70.5,598.9,67.9z M589.5,94c-0.4,2.1-1.1,3.9-2.1,5.5c-1,1.6-2.3,2.8-4,3.8c-1.6,1-3.7,1.5-6.1,1.5
					c-2.4,0-4.4-0.5-6-1.5c-1.7-1-3-2.2-4-3.8c-1-1.6-1.7-3.4-2.2-5.5c-0.5-2.1-0.7-4.2-0.7-6.3c0-2.2,0.2-4.4,0.6-6.4
					c0.4-2.1,1.1-3.9,2.1-5.5c1-1.6,2.3-2.9,4-3.9c1.6-1,3.6-1.5,6.1-1.5c2.4,0,4.4,0.5,6,1.5c1.6,1,3,2.3,4,3.9
					c1,1.6,1.8,3.5,2.2,5.6c0.5,2.1,0.7,4.2,0.7,6.3C590.1,89.8,589.9,91.9,589.5,94z M662.2,77.1c-1-3.5-2.5-6.6-4.5-9.2
					c-2-2.6-4.5-4.8-7.6-6.3c-3.1-1.6-6.7-2.4-10.9-2.4c-3.3,0-6.4,0.7-9.1,2c-2.8,1.3-5.1,3.4-6.9,6.3h-0.2v-6.9h-14v72.6h14.8
					v-25.5h0.2c1.8,2.6,4.1,4.6,6.9,6c2.8,1.4,5.9,2,9.2,2c3.9,0,7.4-0.8,10.3-2.3c2.9-1.5,5.4-3.6,7.4-6.1c2-2.6,3.4-5.5,4.4-8.8
					c1-3.3,1.5-6.8,1.5-10.4C663.7,84.2,663.2,80.6,662.2,77.1z M648.3,94c-0.4,2.1-1.1,3.9-2.1,5.5c-1,1.6-2.3,2.8-4,3.8
					c-1.6,1-3.7,1.5-6.1,1.5c-2.4,0-4.4-0.5-6-1.5c-1.7-1-3-2.2-4-3.8c-1-1.6-1.7-3.4-2.2-5.5c-0.5-2.1-0.7-4.2-0.7-6.3
					c0-2.2,0.2-4.4,0.6-6.4c0.4-2.1,1.1-3.9,2.1-5.5c1-1.6,2.3-2.9,4-3.9c1.6-1,3.7-1.5,6.1-1.5c2.4,0,4.3,0.5,6,1.5
					c1.6,1,3,2.3,4,3.9c1,1.6,1.8,3.5,2.2,5.6c0.5,2.1,0.7,4.2,0.7,6.3C648.9,89.8,648.7,91.9,648.3,94z"/>
			</g>
		</g>
		<g id="v2_00000174569997819121668350000000043646675979031219_">
			<path class="st0" d="M152.9,73.7c-0.7-20-9.1-38.6-23.5-52.4C115.3,7.8,96.5,0.1,76.9,0c-0.1,0-0.3,0-0.4,0
				C55.3,0,35.4,8.6,20.9,24C6.8,38.8-0.6,58.3,0,78.7c0.3,12.1,3.6,24,9.3,34.5l-6.8,40.5c0,0.4,0.2,0.7,0.6,0.7c0,0,0.1,0,0.1,0
				l40-8.9c10.3,5,21.7,7.5,33.2,7.5c0.7,0,1.5,0,2.2,0c21.3-0.6,41-9.8,55.2-25.9C146.8,112.4,153.6,93.2,152.9,73.7z M78.3,139.7
				c-0.6,0-1.2,0-1.8,0c-10.1,0-20.2-2.4-29.1-7.1l-2.1-1.1l-27.2,6.4l5-27.5l-1.2-2c-5.4-9.1-8.4-19.6-8.7-30.2
				c-1-34.8,26.5-64,61.4-65c0.6,0,1.2,0,1.8,0c34,0,62.2,27.2,63.2,61.4C140.7,109.5,113.1,138.7,78.3,139.7z"/>
			<path class="st0" d="M49.9,39.5c-1.3,0-3.3,0.5-5,2.2c-1.8,1.9-6.9,6.4-7.2,15.8C37.4,67,44,76.4,44.9,77.7
				c0.9,1.3,12.6,21.7,31.9,30c11.3,4.9,16.3,5.7,19.5,5.7c1.3,0,2.3-0.1,3.4-0.2c3.5-0.2,11.5-4.3,13.2-8.7
				c1.7-4.4,1.9-8.3,1.4-9.1c-0.5-0.8-1.7-1.3-3.6-2.4c-1.9-1-11.2-6-12.9-6.7c-0.8-0.3-1.4-0.5-2.1-0.5c-0.8,0-1.5,0.4-2.3,1.4
				c-1.5,1.9-5.1,6.1-6.3,7.3c-0.6,0.6-1.3,1-2.1,1c-0.6,0-1.3-0.2-2.1-0.6c-2.3-1.1-8-3.3-15.1-10.1c-5.5-5.3-9.2-11.7-10.3-13.6
				c-1.1-2,0-3,1-3.9c0.9-0.8,2-2.2,3-3.3c1-1.1,1.3-1.9,2-3.1c0.7-1.3,0.4-2.4-0.1-3.4C63,56.6,59.6,47,58,43.1
				c-1.3-3.2-2.9-3.4-4.2-3.5c-1.1-0.1-2.4-0.1-3.7-0.2C50,39.5,50,39.5,49.9,39.5"/>
		</g>
	</g>
	<g>
		<path class="st0" d="M719.6,40.1c1.6,0,3.3,0,5.1,0.1c1.8,0,3.7,0.1,5.5,0.3c1.8,0.2,3.5,0.4,5,0.8c1.6,0.3,2.9,0.9,4,1.6
			c2.4,1.5,4.5,3.5,6.2,6c1.7,2.6,2.5,5.7,2.5,9.5c0,4-1,7.4-2.9,10.2c-1.9,2.9-4.6,5-8.2,6.4v0.2c4.6,1,8.1,3.1,10.5,6.2
			c2.4,3.2,3.6,7.1,3.6,11.6c0,2.7-0.5,5.3-1.5,7.9c-1,2.6-2.4,4.8-4.3,6.8c-1.9,2-4.3,3.6-7.1,4.8c-2.8,1.2-6,1.8-9.7,1.8h-35.9
			V40.1H719.6z M722.3,72c5.6,0,9.7-1,12.1-3c2.5-2,3.7-4.9,3.7-8.9c0-2.6-0.4-4.7-1.2-6.2c-0.8-1.5-2-2.7-3.4-3.5s-3.1-1.4-5-1.6
			c-1.9-0.2-3.9-0.4-6.1-0.4h-19.8V72H722.3z M727.3,106c4.4,0,7.8-1.2,10.2-3.5c2.5-2.4,3.7-5.6,3.7-9.8c0-2.4-0.5-4.4-1.4-6
			c-0.9-1.6-2.1-2.9-3.6-3.8c-1.5-0.9-3.2-1.6-5.1-2c-1.9-0.4-4-0.6-6-0.6h-22.6V106H727.3z"/>
		<path class="st0" d="M795,114.4v-8.5h-0.2c-1.9,3.3-4.3,5.8-7.2,7.3c-2.9,1.6-6.3,2.3-10.3,2.3c-3.5,0-6.5-0.5-8.8-1.4
			c-2.4-0.9-4.3-2.3-5.7-4c-1.5-1.7-2.5-3.8-3.1-6.2c-0.6-2.4-0.9-5-0.9-8V60.6h8.8V97c0,3.3,1,6,2.9,7.9c1.9,1.9,4.6,2.9,8,2.9
			c2.7,0,5-0.4,7-1.2c2-0.8,3.6-2,4.9-3.5c1.3-1.5,2.3-3.3,3-5.4c0.7-2,1-4.3,1-6.7V60.6h8.8v53.8H795z"/>
		<path class="st0" d="M820.2,102.4c0.8,1.4,1.9,2.4,3.3,3.2c1.4,0.8,2.9,1.4,4.6,1.7c1.7,0.3,3.4,0.5,5.3,0.5
			c1.4,0,2.8-0.1,4.4-0.3c1.5-0.2,2.9-0.6,4.2-1.1c1.3-0.6,2.3-1.4,3.2-2.4c0.8-1.1,1.2-2.4,1.2-4.1c0-2.3-0.9-4-2.6-5.2
			c-1.7-1.2-3.9-2.1-6.5-2.9c-2.6-0.7-5.4-1.4-8.5-2c-3.1-0.6-5.9-1.4-8.5-2.5c-2.6-1.1-4.8-2.6-6.5-4.5c-1.7-1.9-2.6-4.6-2.6-8.1
			c0-2.7,0.6-5,1.8-7c1.2-1.9,2.8-3.5,4.7-4.7c1.9-1.2,4.1-2.1,6.4-2.7c2.4-0.6,4.8-0.9,7.1-0.9c3,0,5.9,0.3,8.4,0.8
			c2.6,0.5,4.8,1.4,6.8,2.7c2,1.3,3.6,3,4.7,5.2c1.2,2.2,1.9,4.9,2.1,8.2h-8.8c-0.1-1.7-0.6-3.2-1.4-4.3c-0.8-1.1-1.7-2.1-2.9-2.8
			c-1.2-0.7-2.5-1.2-3.9-1.5c-1.4-0.3-2.9-0.5-4.3-0.5c-1.3,0-2.7,0.1-4,0.3c-1.4,0.2-2.6,0.6-3.7,1.1c-1.1,0.5-2,1.2-2.7,2.1
			c-0.7,0.9-1,2-1,3.4c0,1.5,0.5,2.8,1.6,3.8c1.1,1,2.4,1.8,4.1,2.5c1.7,0.7,3.5,1.2,5.6,1.7c2.1,0.5,4.2,0.9,6.2,1.4
			c2.2,0.5,4.4,1.1,6.5,1.8c2.1,0.7,4,1.6,5.6,2.8c1.6,1.1,2.9,2.6,4,4.3c1,1.7,1.5,3.9,1.5,6.4c0,3.3-0.7,6-2,8.1
			c-1.4,2.2-3.1,3.9-5.3,5.2c-2.2,1.3-4.6,2.2-7.4,2.8c-2.7,0.5-5.5,0.8-8.2,0.8c-3,0-5.8-0.3-8.5-0.9c-2.7-0.6-5.1-1.6-7.2-3.1
			c-2.1-1.4-3.7-3.3-5-5.6c-1.2-2.3-1.9-5.1-2.1-8.5h8.8C818.9,99.4,819.4,101,820.2,102.4z"/>
		<path class="st0" d="M862.5,50.9V40.1h8.8v10.8H862.5z M871.3,60.6v53.8h-8.8V60.6H871.3z"/>
		<path class="st0" d="M889.6,60.6v8.5h0.2c3.7-6.5,9.5-9.8,17.5-9.8c3.5,0,6.5,0.5,8.8,1.5c2.4,1,4.3,2.3,5.7,4.1
			c1.5,1.7,2.5,3.8,3.1,6.2c0.6,2.4,0.9,5,0.9,8v35.4h-8.8V78c0-3.3-1-6-2.9-7.9c-1.9-1.9-4.6-2.9-8-2.9c-2.7,0-5,0.4-7,1.2
			c-2,0.8-3.6,2-4.9,3.5c-1.3,1.5-2.3,3.3-3,5.4c-0.7,2-1,4.3-1,6.7v30.4h-8.8V60.6H889.6z"/>
		<path class="st0" d="M973.4,110.9c-4,3.1-9.1,4.6-15.2,4.6c-4.3,0-8-0.7-11.2-2.1c-3.2-1.4-5.8-3.3-8-5.8
			c-2.2-2.5-3.8-5.5-4.8-8.9c-1.1-3.5-1.7-7.2-1.8-11.3c0-4.1,0.6-7.8,1.9-11.2c1.2-3.4,3-6.3,5.3-8.8c2.3-2.5,4.9-4.4,8-5.8
			c3.1-1.4,6.5-2.1,10.1-2.1c4.8,0,8.8,1,11.9,3c3.2,2,5.7,4.5,7.6,7.5c1.9,3.1,3.2,6.4,4,10c0.7,3.6,1,7,0.9,10.3h-40.2
			c-0.1,2.4,0.2,4.6,0.8,6.7c0.6,2.1,1.6,4,3,5.6c1.4,1.6,3.2,2.9,5.3,3.9c2.1,1,4.7,1.5,7.6,1.5c3.7,0,6.8-0.9,9.2-2.6
			c2.4-1.7,4-4.4,4.7-7.9h8.7C980.1,103.3,977.5,107.9,973.4,110.9z M971.3,76.4c-0.8-1.9-1.9-3.5-3.2-4.8c-1.4-1.4-2.9-2.4-4.8-3.2
			c-1.8-0.8-3.9-1.2-6.1-1.2c-2.3,0-4.4,0.4-6.2,1.2c-1.8,0.8-3.4,1.9-4.7,3.3c-1.3,1.4-2.4,3-3.1,4.8c-0.8,1.8-1.2,3.8-1.4,5.9
			h30.9C972.6,80.3,972.1,78.3,971.3,76.4z"/>
		<path class="st0" d="M995.3,102.4c0.8,1.4,1.9,2.4,3.3,3.2c1.4,0.8,2.9,1.4,4.6,1.7c1.7,0.3,3.4,0.5,5.3,0.5
			c1.4,0,2.8-0.1,4.4-0.3c1.5-0.2,2.9-0.6,4.2-1.1c1.3-0.6,2.3-1.4,3.2-2.4c0.8-1.1,1.2-2.4,1.2-4.1c0-2.3-0.9-4-2.6-5.2
			c-1.7-1.2-3.9-2.1-6.5-2.9c-2.6-0.7-5.4-1.4-8.5-2c-3.1-0.6-5.9-1.4-8.5-2.5c-2.6-1.1-4.8-2.6-6.5-4.5c-1.7-1.9-2.6-4.6-2.6-8.1
			c0-2.7,0.6-5,1.8-7c1.2-1.9,2.8-3.5,4.7-4.7c1.9-1.2,4.1-2.1,6.4-2.7c2.4-0.6,4.8-0.9,7.1-0.9c3,0,5.9,0.3,8.4,0.8
			c2.6,0.5,4.8,1.4,6.8,2.7c2,1.3,3.6,3,4.7,5.2c1.2,2.2,1.9,4.9,2.1,8.2h-8.8c-0.1-1.7-0.6-3.2-1.4-4.3c-0.8-1.1-1.7-2.1-2.9-2.8
			c-1.2-0.7-2.5-1.2-3.9-1.5c-1.4-0.3-2.9-0.5-4.3-0.5c-1.3,0-2.7,0.1-4,0.3c-1.4,0.2-2.6,0.6-3.7,1.1c-1.1,0.5-2,1.2-2.7,2.1
			c-0.7,0.9-1,2-1,3.4c0,1.5,0.5,2.8,1.6,3.8c1.1,1,2.4,1.8,4.1,2.5c1.7,0.7,3.5,1.2,5.6,1.7c2.1,0.5,4.2,0.9,6.2,1.4
			c2.2,0.5,4.4,1.1,6.5,1.8c2.1,0.7,4,1.6,5.6,2.8c1.6,1.1,2.9,2.6,4,4.3c1,1.7,1.5,3.9,1.5,6.4c0,3.3-0.7,6-2,8.1
			c-1.4,2.2-3.1,3.9-5.3,5.2c-2.2,1.3-4.6,2.2-7.4,2.8c-2.7,0.5-5.5,0.8-8.2,0.8c-3,0-5.8-0.3-8.5-0.9c-2.7-0.6-5.1-1.6-7.2-3.1
			c-2.1-1.4-3.7-3.3-5-5.6c-1.2-2.3-1.9-5.1-2.1-8.5h8.8C994,99.4,994.5,101,995.3,102.4z"/>
		<path class="st0" d="M1044.5,102.4c0.8,1.4,1.9,2.4,3.3,3.2c1.4,0.8,2.9,1.4,4.6,1.7c1.7,0.3,3.4,0.5,5.3,0.5
			c1.4,0,2.8-0.1,4.4-0.3c1.5-0.2,2.9-0.6,4.2-1.1c1.3-0.6,2.3-1.4,3.2-2.4c0.8-1.1,1.2-2.4,1.2-4.1c0-2.3-0.9-4-2.6-5.2
			c-1.7-1.2-3.9-2.1-6.5-2.9c-2.6-0.7-5.4-1.4-8.5-2c-3.1-0.6-5.9-1.4-8.5-2.5c-2.6-1.1-4.8-2.6-6.5-4.5c-1.7-1.9-2.6-4.6-2.6-8.1
			c0-2.7,0.6-5,1.8-7c1.2-1.9,2.8-3.5,4.7-4.7c1.9-1.2,4.1-2.1,6.4-2.7c2.4-0.6,4.8-0.9,7.1-0.9c3,0,5.9,0.3,8.4,0.8
			c2.6,0.5,4.8,1.4,6.8,2.7c2,1.3,3.6,3,4.7,5.2c1.2,2.2,1.9,4.9,2.1,8.2h-8.8c-0.1-1.7-0.6-3.2-1.4-4.3c-0.8-1.1-1.7-2.1-2.9-2.8
			c-1.2-0.7-2.5-1.2-3.9-1.5c-1.4-0.3-2.9-0.5-4.3-0.5c-1.3,0-2.7,0.1-4,0.3c-1.4,0.2-2.6,0.6-3.7,1.1c-1.1,0.5-2,1.2-2.7,2.1
			c-0.7,0.9-1,2-1,3.4c0,1.5,0.5,2.8,1.6,3.8c1.1,1,2.4,1.8,4.1,2.5c1.7,0.7,3.5,1.2,5.6,1.7c2.1,0.5,4.2,0.9,6.2,1.4
			c2.2,0.5,4.4,1.1,6.5,1.8c2.1,0.7,4,1.6,5.6,2.8c1.6,1.1,2.9,2.6,4,4.3c1,1.7,1.5,3.9,1.5,6.4c0,3.3-0.7,6-2,8.1
			c-1.4,2.2-3.1,3.9-5.3,5.2c-2.2,1.3-4.6,2.2-7.4,2.8c-2.7,0.5-5.5,0.8-8.2,0.8c-3,0-5.8-0.3-8.5-0.9c-2.7-0.6-5.1-1.6-7.2-3.1
			c-2.1-1.4-3.7-3.3-5-5.6c-1.2-2.3-1.9-5.1-2.1-8.5h8.8C1043.3,99.4,1043.7,101,1044.5,102.4z"/>
	</g>
</g>
</svg>
